<?xml version="1.0" standalone="no"?><!DOCTYPE svg PUBLIC "-//W3C//DTD SVG 1.1//EN" "http://www.w3.org/Graphics/SVG/1.1/DTD/svg11.dtd"><svg xmlns:xlink="http://www.w3.org/1999/xlink" version="1.1" class="highcharts-root" style="font-family:Roboto;font-size:12px;color:#444444;fill:#444444;" xmlns="http://www.w3.org/2000/svg" width="600" height="500" viewBox="0 0 600 500"><desc>Created with Highcharts 7.0.1</desc><defs><clipPath id="highcharts-zz29m81-1221"><rect x="0" y="0" width="529" height="382" fill="none"></rect></clipPath><clipPath id="highcharts-zz29m81-1231"><rect x="0" y="0" width="529" height="382" fill="none"></rect></clipPath><clipPath id="highcharts-zz29m81-1268"><rect x="61" y="46" width="529" height="382" fill="none"></rect></clipPath></defs><rect fill="#ffffff" class="highcharts-background" x="0" y="0" width="600" height="500" rx="0" ry="0"></rect><rect fill="none" class="highcharts-plot-background" x="61" y="46" width="529" height="382"></rect><g class="highcharts-pane-group" data-z-index="0"></g><g class="highcharts-grid highcharts-xaxis-grid " data-z-index="1"><path fill="none" stroke="#F3F3F3" stroke-width="1" data-z-index="1" class="highcharts-grid-line" d="M 119.5 46 L 119.5 428" opacity="1"></path><path fill="none" stroke="#F3F3F3" stroke-width="1" data-z-index="1" class="highcharts-grid-line" d="M 178.5 46 L 178.5 428" opacity="1"></path><path fill="none" stroke="#F3F3F3" stroke-width="1" data-z-index="1" class="highcharts-grid-line" d="M 236.5 46 L 236.5 428" opacity="1"></path><path fill="none" stroke="#F3F3F3" stroke-width="1" data-z-index="1" class="highcharts-grid-line" d="M 295.5 46 L 295.5 428" opacity="1"></path><path fill="none" stroke="#F3F3F3" stroke-width="1" data-z-index="1" class="highcharts-grid-line" d="M 354.5 46 L 354.5 428" opacity="1"></path><path fill="none" stroke="#F3F3F3" stroke-width="1" data-z-index="1" class="highcharts-grid-line" d="M 413.5 46 L 413.5 428" opacity="1"></path><path fill="none" stroke="#F3F3F3" stroke-width="1" data-z-index="1" class="highcharts-grid-line" d="M 471.5 46 L 471.5 428" opacity="1"></path><path fill="none" stroke="#F3F3F3" stroke-width="1" data-z-index="1" class="highcharts-grid-line" d="M 530.5 46 L 530.5 428" opacity="1"></path><path fill="none" stroke="#F3F3F3" stroke-width="1" data-z-index="1" class="highcharts-grid-line" d="M 590.5 46 L 590.5 428" opacity="1"></path><path fill="none" stroke="#F3F3F3" stroke-width="1" data-z-index="1" class="highcharts-grid-line" d="M 60.5 46 L 60.5 428" opacity="1"></path></g><g class="highcharts-grid highcharts-yaxis-grid " data-z-index="1"><path fill="none" stroke="#F3F3F3" stroke-width="1" data-z-index="1" class="highcharts-grid-line" d="M 61 428.5 L 590 428.5" opacity="1"></path><path fill="none" stroke="#F3F3F3" stroke-width="1" data-z-index="1" class="highcharts-grid-line" d="M 61 352.5 L 590 352.5" opacity="1"></path><path fill="none" stroke="#F3F3F3" stroke-width="1" data-z-index="1" class="highcharts-grid-line" d="M 61 275.5 L 590 275.5" opacity="1"></path><path fill="none" stroke="#F3F3F3" stroke-width="1" data-z-index="1" class="highcharts-grid-line" d="M 61 199.5 L 590 199.5" opacity="1"></path><path fill="none" stroke="#F3F3F3" stroke-width="1" data-z-index="1" class="highcharts-grid-line" d="M 61 122.5 L 590 122.5" opacity="1"></path><path fill="none" stroke="#F3F3F3" stroke-width="1" data-z-index="1" class="highcharts-grid-line" d="M 61 45.5 L 590 45.5" opacity="1"></path></g><rect fill="none" class="highcharts-plot-border" data-z-index="1" x="61" y="46" width="529" height="382"></rect><g class="highcharts-axis highcharts-xaxis " data-z-index="2"><path fill="none" class="highcharts-tick" stroke="#F3F3F3" stroke-width="1" d="M 119.5 428 L 119.5 438" opacity="1"></path><path fill="none" class="highcharts-tick" stroke="#F3F3F3" stroke-width="1" d="M 178.5 428 L 178.5 438" opacity="1"></path><path fill="none" class="highcharts-tick" stroke="#F3F3F3" stroke-width="1" d="M 236.5 428 L 236.5 438" opacity="1"></path><path fill="none" class="highcharts-tick" stroke="#F3F3F3" stroke-width="1" d="M 295.5 428 L 295.5 438" opacity="1"></path><path fill="none" class="highcharts-tick" stroke="#F3F3F3" stroke-width="1" d="M 354.5 428 L 354.5 438" opacity="1"></path><path fill="none" class="highcharts-tick" stroke="#F3F3F3" stroke-width="1" d="M 413.5 428 L 413.5 438" opacity="1"></path><path fill="none" class="highcharts-tick" stroke="#F3F3F3" stroke-width="1" d="M 471.5 428 L 471.5 438" opacity="1"></path><path fill="none" class="highcharts-tick" stroke="#F3F3F3" stroke-width="1" d="M 530.5 428 L 530.5 438" opacity="1"></path><path fill="none" class="highcharts-tick" stroke="#F3F3F3" stroke-width="1" d="M 590.5 428 L 590.5 438" opacity="1"></path><path fill="none" class="highcharts-tick" stroke="#F3F3F3" stroke-width="1" d="M 60.5 428 L 60.5 438" opacity="1"></path><path fill="none" class="highcharts-axis-line" stroke="#F3F3F3" stroke-width="1" data-z-index="7" d="M 61 428.5 L 590 428.5"></path></g><g class="highcharts-axis highcharts-yaxis " data-z-index="2"><path fill="none" class="highcharts-tick" stroke="#F3F3F3" stroke-width="1" d="M 61 428.5 L 51 428.5" opacity="1"></path><path fill="none" class="highcharts-tick" stroke="#F3F3F3" stroke-width="1" d="M 61 352.5 L 51 352.5" opacity="1"></path><path fill="none" class="highcharts-tick" stroke="#F3F3F3" stroke-width="1" d="M 61 275.5 L 51 275.5" opacity="1"></path><path fill="none" class="highcharts-tick" stroke="#F3F3F3" stroke-width="1" d="M 61 199.5 L 51 199.5" opacity="1"></path><path fill="none" class="highcharts-tick" stroke="#F3F3F3" stroke-width="1" d="M 61 122.5 L 51 122.5" opacity="1"></path><path fill="none" class="highcharts-tick" stroke="#F3F3F3" stroke-width="1" d="M 61 45.5 L 51 45.5" opacity="1"></path><text x="23.640625" data-z-index="7" text-anchor="middle" transform="translate(0,0) rotate(270 23.640625 237)" class="highcharts-axis-title" style="color:#666666;fill:#666666;" y="237"><tspan>Percentage of vaccination (%)</tspan></text><path fill="none" class="highcharts-axis-line" data-z-index="7" d="M 61 46 L 61 428"></path></g><g class="highcharts-series-group" data-z-index="3"><g data-z-index="0.1" class="highcharts-series highcharts-series-0 highcharts-area-series highcharts-color-0 " transform="translate(61,46) scale(1 1)" clip-path="url(#highcharts-zz29m81-1231)"><path fill="rgb(28,35,51)" fill-opacity="0.4" d="M 29.388888888889 341.89 L 88.166666666667 322.1788 L 146.94444444444 301.5508 L 205.72222222222 276.0332 L 264.5 250.1336 L 323.27777777778 226.0676 L 382.05555555556 193.3684 L 440.83333333333 157.6896 L 499.61111111111 123.76800000000003 L 499.61111111111 382 L 440.83333333333 382 L 382.05555555556 382 L 323.27777777778 382 L 264.5 382 L 205.72222222222 382 L 146.94444444444 382 L 88.166666666667 382 L 29.388888888889 382" class="highcharts-area" data-z-index="0"></path><path fill="none" d="M 29.388888888889 341.89 L 88.166666666667 322.1788 L 146.94444444444 301.5508 L 205.72222222222 276.0332 L 264.5 250.1336 L 323.27777777778 226.0676 L 382.05555555556 193.3684 L 440.83333333333 157.6896 L 499.61111111111 123.76800000000003" class="highcharts-graph" data-z-index="1" stroke="#1C2333" stroke-width="3.1" stroke-linejoin="round" stroke-linecap="round"></path></g><g data-z-index="0.1" class="highcharts-markers highcharts-series-0 highcharts-area-series highcharts-color-0 " transform="translate(61,46) scale(1 1)" clip-path="none"><path fill="#1C2333" d="M 33 342 A 4 4 0 1 1 32.99999800000017 341.99600000066664 Z" class="highcharts-point highcharts-color-0"></path><path fill="#1C2333" d="M 92 322 A 4 4 0 1 1 91.99999800000016 321.99600000066664 Z" class="highcharts-point highcharts-color-0"></path><path fill="#1C2333" d="M 150 302 A 4 4 0 1 1 149.99999800000018 301.99600000066664 Z" class="highcharts-point highcharts-color-0"></path><path fill="#1C2333" d="M 209 276 A 4 4 0 1 1 208.99999800000018 275.99600000066664 Z" class="highcharts-point highcharts-color-0"></path><path fill="#1C2333" d="M 268 250 A 4 4 0 1 1 267.9999980000002 249.99600000066667 Z" class="highcharts-point highcharts-color-0"></path><path fill="#1C2333" d="M 327 226 A 4 4 0 1 1 326.9999980000002 225.99600000066667 Z" class="highcharts-point highcharts-color-0"></path><path fill="#1C2333" d="M 386 193 A 4 4 0 1 1 385.9999980000002 192.99600000066667 Z" class="highcharts-point highcharts-color-0"></path><path fill="#1C2333" d="M 444 158 A 4 4 0 1 1 443.9999980000002 157.99600000066667 Z" class="highcharts-point highcharts-color-0"></path><path fill="#1C2333" d="M 503 124 A 4 4 0 1 1 502.9999980000002 123.99600000066667 Z" class="highcharts-point highcharts-color-0"></path></g><g data-z-index="0.1" class="highcharts-series highcharts-series-1 highcharts-area-series highcharts-color-1 " transform="translate(61,46) scale(1 1)" clip-path="url(#highcharts-zz29m81-1231)"><path fill="rgb(0,201,255)" fill-opacity="0.2" d="M 29.388888888889 316.1432 L 88.166666666667 287.7988 L 146.94444444444 252.8076 L 205.72222222222 218.3512 L 264.5 185.4228 L 323.27777777778 157.91880000000003 L 382.05555555556 129.9564 L 440.83333333333 103.36920000000003 L 499.61111111111 77.77519999999998 L 499.61111111111 382 L 440.83333333333 382 L 382.05555555556 382 L 323.27777777778 382 L 264.5 382 L 205.72222222222 382 L 146.94444444444 382 L 88.166666666667 382 L 29.388888888889 382" class="highcharts-area" data-z-index="0"></path><path fill="none" d="M 29.388888888889 316.1432 L 88.166666666667 287.7988 L 146.94444444444 252.8076 L 205.72222222222 218.3512 L 264.5 185.4228 L 323.27777777778 157.91880000000003 L 382.05555555556 129.9564 L 440.83333333333 103.36920000000003 L 499.61111111111 77.77519999999998" class="highcharts-graph" data-z-index="1" stroke="#00C9FF" stroke-width="3.1" stroke-linejoin="round" stroke-linecap="round"></path></g><g data-z-index="0.1" class="highcharts-markers highcharts-series-1 highcharts-area-series highcharts-color-1 " transform="translate(61,46) scale(1 1)" clip-path="none"><path fill="#00C9FF" d="M 29 312 L 33 316 29 320 25 316 Z" class="highcharts-point highcharts-color-1"></path><path fill="#00C9FF" d="M 88 284 L 92 288 88 292 84 288 Z" class="highcharts-point highcharts-color-1"></path><path fill="#00C9FF" d="M 146 249 L 150 253 146 257 142 253 Z" class="highcharts-point highcharts-color-1"></path><path fill="#00C9FF" d="M 205 214 L 209 218 205 222 201 218 Z" class="highcharts-point highcharts-color-1"></path><path fill="#00C9FF" d="M 264 181 L 268 185 264 189 260 185 Z" class="highcharts-point highcharts-color-1"></path><path fill="#00C9FF" d="M 323 154 L 327 158 323 162 319 158 Z" class="highcharts-point highcharts-color-1"></path><path fill="#00C9FF" d="M 382 126 L 386 130 382 134 378 130 Z" class="highcharts-point highcharts-color-1"></path><path fill="#00C9FF" d="M 440 99 L 444 103 440 107 436 103 Z" class="highcharts-point highcharts-color-1"></path><path fill="#00C9FF" d="M 499 74 L 503 78 499 82 495 78 Z" class="highcharts-point highcharts-color-1"></path></g><g data-z-index="0.1" class="highcharts-series highcharts-series-2 highcharts-area-series highcharts-color-2 " transform="translate(61,46) scale(1 1)" clip-path="url(#highcharts-zz29m81-1231)"><path fill="rgb(1,221,159)" fill-opacity="0.75" d="M 29.388888888889 381.3888 L 88.166666666667 380.3956 L 146.94444444444 379.2496 L 205.72222222222 377.8744 L 264.5 376.5756 L 323.27777777778 374.742 L 382.05555555556 372.068 L 440.83333333333 367.484 L 499.61111111111 361.4484 L 499.61111111111 382 L 440.83333333333 382 L 382.05555555556 382 L 323.27777777778 382 L 264.5 382 L 205.72222222222 382 L 146.94444444444 382 L 88.166666666667 382 L 29.388888888889 382" class="highcharts-area" data-z-index="0"></path><path fill="none" d="M 29.388888888889 381.3888 L 88.166666666667 380.3956 L 146.94444444444 379.2496 L 205.72222222222 377.8744 L 264.5 376.5756 L 323.27777777778 374.742 L 382.05555555556 372.068 L 440.83333333333 367.484 L 499.61111111111 361.4484" class="highcharts-graph" data-z-index="1" stroke="#01DD9F" stroke-width="3.1" stroke-linejoin="round" stroke-linecap="round"></path></g><g data-z-index="0.1" class="highcharts-markers highcharts-series-2 highcharts-area-series highcharts-color-2 " transform="translate(61,46) scale(1 1)" clip-path="none"><path fill="#01DD9F" d="M 25 377 L 33 377 33 385 25 385 Z" class="highcharts-point highcharts-color-2"></path><path fill="#01DD9F" d="M 84 376 L 92 376 92 384 84 384 Z" class="highcharts-point highcharts-color-2"></path><path fill="#01DD9F" d="M 142 375 L 150 375 150 383 142 383 Z" class="highcharts-point highcharts-color-2"></path><path fill="#01DD9F" d="M 201 374 L 209 374 209 382 201 382 Z" class="highcharts-point highcharts-color-2"></path><path fill="#01DD9F" d="M 260 373 L 268 373 268 381 260 381 Z" class="highcharts-point highcharts-color-2"></path><path fill="#01DD9F" d="M 319 371 L 327 371 327 379 319 379 Z" class="highcharts-point highcharts-color-2"></path><path fill="#01DD9F" d="M 378 368 L 386 368 386 376 378 376 Z" class="highcharts-point highcharts-color-2"></path><path fill="#01DD9F" d="M 436 363 L 444 363 444 371 436 371 Z" class="highcharts-point highcharts-color-2"></path><path fill="#01DD9F" d="M 495 357 L 503 357 503 365 495 365 Z" class="highcharts-point highcharts-color-2"></path></g><g data-z-index="0.1" class="highcharts-series highcharts-series-3 highcharts-area-series highcharts-color-3 " transform="translate(61,46) scale(1 1)" clip-path="url(#highcharts-zz29m81-1231)"><path fill="rgb(253,15,107)" fill-opacity="0.1" d="M 29.388888888889 312.7816 L 88.166666666667 283.444 L 146.94444444444 247.6124 L 205.72222222222 215.1424 L 264.5 182.21400000000003 L 323.27777777778 154.17520000000002 L 382.05555555556 126.3656 L 440.83333333333 99.54920000000004 L 499.61111111111 73.64960000000002 L 499.61111111111 382 L 440.83333333333 382 L 382.05555555556 382 L 323.27777777778 382 L 264.5 382 L 205.72222222222 382 L 146.94444444444 382 L 88.166666666667 382 L 29.388888888889 382" class="highcharts-area" data-z-index="0"></path><path fill="none" d="M 29.388888888889 312.7816 L 88.166666666667 283.444 L 146.94444444444 247.6124 L 205.72222222222 215.1424 L 264.5 182.21400000000003 L 323.27777777778 154.17520000000002 L 382.05555555556 126.3656 L 440.83333333333 99.54920000000004 L 499.61111111111 73.64960000000002" class="highcharts-graph" data-z-index="1" stroke="#FD0F6B" stroke-width="3.1" stroke-linejoin="round" stroke-linecap="round"></path></g><g data-z-index="0.1" class="highcharts-markers highcharts-series-3 highcharts-area-series highcharts-color-3 " transform="translate(61,46) scale(1 1)" clip-path="none"><path fill="#FD0F6B" d="M 29 309 L 33 317 25 317 Z" class="highcharts-point highcharts-color-3"></path><path fill="#FD0F6B" d="M 88 279 L 92 287 84 287 Z" class="highcharts-point highcharts-color-3"></path><path fill="#FD0F6B" d="M 146 244 L 150 252 142 252 Z" class="highcharts-point highcharts-color-3"></path><path fill="#FD0F6B" d="M 205 211 L 209 219 201 219 Z" class="highcharts-point highcharts-color-3"></path><path fill="#FD0F6B" d="M 264 178 L 268 186 260 186 Z" class="highcharts-point highcharts-color-3"></path><path fill="#FD0F6B" d="M 323 150 L 327 158 319 158 Z" class="highcharts-point highcharts-color-3"></path><path fill="#FD0F6B" d="M 382 122 L 386 130 378 130 Z" class="highcharts-point highcharts-color-3"></path><path fill="#FD0F6B" d="M 440 96 L 444 104 436 104 Z" class="highcharts-point highcharts-color-3"></path><path fill="#FD0F6B" d="M 499 70 L 503 78 495 78 Z" class="highcharts-point highcharts-color-3"></path></g><g data-z-index="0.1" class="highcharts-series highcharts-series-4 highcharts-area-series highcharts-color-4 " transform="translate(61,46) scale(1 1)" clip-path="url(#highcharts-zz29m81-1231)"><path fill="rgb(255,198,3)" fill-opacity="0.4" d="M 29.388888888889 381.5416 L 88.166666666667 376.8048 L 146.94444444444 370.922 L 205.72222222222 366.1852 L 264.5 359.6912 L 323.27777777778 353.9612 L 382.05555555556 347.0088 L 440.83333333333 343.418 L 499.61111111111 336.3892 L 499.61111111111 382 L 440.83333333333 382 L 382.05555555556 382 L 323.27777777778 382 L 264.5 382 L 205.72222222222 382 L 146.94444444444 382 L 88.166666666667 382 L 29.388888888889 382" class="highcharts-area" data-z-index="0"></path><path fill="none" d="M 29.388888888889 381.5416 L 88.166666666667 376.8048 L 146.94444444444 370.922 L 205.72222222222 366.1852 L 264.5 359.6912 L 323.27777777778 353.9612 L 382.05555555556 347.0088 L 440.83333333333 343.418 L 499.61111111111 336.3892" class="highcharts-graph" data-z-index="1" stroke="#FFC603" stroke-width="3.1" stroke-linejoin="round" stroke-linecap="round"></path></g><g data-z-index="0.1" class="highcharts-markers highcharts-series-4 highcharts-area-series highcharts-color-4 " transform="translate(61,46) scale(1 1)" clip-path="none"><path fill="#FFC603" d="M 25 378 L 33 378 29 386 Z" class="highcharts-point highcharts-color-4"></path><path fill="#FFC603" d="M 84 373 L 92 373 88 381 Z" class="highcharts-point highcharts-color-4"></path><path fill="#FFC603" d="M 142 367 L 150 367 146 375 Z" class="highcharts-point highcharts-color-4"></path><path fill="#FFC603" d="M 201 362 L 209 362 205 370 Z" class="highcharts-point highcharts-color-4"></path><path fill="#FFC603" d="M 260 356 L 268 356 264 364 Z" class="highcharts-point highcharts-color-4"></path><path fill="#FFC603" d="M 319 350 L 327 350 323 358 Z" class="highcharts-point highcharts-color-4"></path><path fill="#FFC603" d="M 378 343 L 386 343 382 351 Z" class="highcharts-point highcharts-color-4"></path><path fill="#FFC603" d="M 436 339 L 444 339 440 347 Z" class="highcharts-point highcharts-color-4"></path><path fill="#FFC603" d="M 495 332 L 503 332 499 340 Z" class="highcharts-point highcharts-color-4"></path></g></g><text x="280" text-anchor="middle" class="highcharts-title" data-z-index="4" style="color:#333333;font-size:18px;fill:#333333;" y="24"><tspan>Percentage of vaccination of the population over the weeks</tspan></text><text x="300" text-anchor="middle" class="highcharts-subtitle" data-z-index="4" style="color:#666666;fill:#666666;" y="45"></text><g data-z-index="6" class="highcharts-data-labels highcharts-series-0 highcharts-area-series highcharts-color-0 " visibility="visible" transform="translate(61,46) scale(1 1)"><g class="highcharts-label highcharts-data-label highcharts-data-label-color-0 " data-z-index="1" transform="translate(10,320)"><text x="5" data-z-index="1" style="font-size:11px;font-weight:bold;color:#000000;fill:#000000;" y="16"><tspan x="5" y="16" class="highcharts-text-outline" fill="#FFFFFF" stroke="#FFFFFF" stroke-width="2px" stroke-linejoin="round" style="">5.25%</tspan><tspan x="5" y="16">5.25%</tspan></text></g><g class="highcharts-label highcharts-data-label highcharts-data-label-color-0 " data-z-index="1" transform="translate(68,300)"><text x="5" data-z-index="1" style="font-size:11px;font-weight:bold;color:#000000;fill:#000000;" y="16"><tspan x="5" y="16" class="highcharts-text-outline" fill="#FFFFFF" stroke="#FFFFFF" stroke-width="2px" stroke-linejoin="round">7.83%</tspan><tspan x="5" y="16">7.83%</tspan></text></g><g class="highcharts-label highcharts-data-label highcharts-data-label-color-0 " data-z-index="1" transform="translate(124,280)"><text x="5" data-z-index="1" style="font-size:11px;font-weight:bold;color:#000000;fill:#000000;" y="16"><tspan x="5" y="16" class="highcharts-text-outline" fill="#FFFFFF" stroke="#FFFFFF" stroke-width="2px" stroke-linejoin="round" style="">10.53%</tspan><tspan x="5" y="16">10.53%</tspan></text></g><g class="highcharts-label highcharts-data-label highcharts-data-label-color-0 " data-z-index="1" transform="translate(183,254)"><text x="5" data-z-index="1" style="font-size:11px;font-weight:bold;color:#000000;fill:#000000;" y="16"><tspan x="5" y="16" class="highcharts-text-outline" fill="#FFFFFF" stroke="#FFFFFF" stroke-width="2px" stroke-linejoin="round">13.87%</tspan><tspan x="5" y="16">13.87%</tspan></text></g><g class="highcharts-label highcharts-data-label highcharts-data-label-color-0 " data-z-index="1" transform="translate(242,228)"><text x="5" data-z-index="1" style="font-size:11px;font-weight:bold;color:#000000;fill:#000000;" y="16"><tspan x="5" y="16" class="highcharts-text-outline" fill="#FFFFFF" stroke="#FFFFFF" stroke-width="2px" stroke-linejoin="round">17.26%</tspan><tspan x="5" y="16">17.26%</tspan></text></g><g class="highcharts-label highcharts-data-label highcharts-data-label-color-0 " data-z-index="1" transform="translate(300,204)"><text x="5" data-z-index="1" style="font-size:11px;font-weight:bold;color:#000000;fill:#000000;" y="16"><tspan x="5" y="16" class="highcharts-text-outline" fill="#FFFFFF" stroke="#FFFFFF" stroke-width="2px" stroke-linejoin="round">20.41%</tspan><tspan x="5" y="16">20.41%</tspan></text></g><g class="highcharts-label highcharts-data-label highcharts-data-label-color-0 " data-z-index="1" transform="translate(359,171)"><text x="5" data-z-index="1" style="font-size:11px;font-weight:bold;color:#000000;fill:#000000;" y="16"><tspan x="5" y="16" class="highcharts-text-outline" fill="#FFFFFF" stroke="#FFFFFF" stroke-width="2px" stroke-linejoin="round">24.69%</tspan><tspan x="5" y="16">24.69%</tspan></text></g><g class="highcharts-label highcharts-data-label highcharts-data-label-color-0 " data-z-index="1" transform="translate(418,136)"><text x="5" data-z-index="1" style="font-size:11px;font-weight:bold;color:#000000;fill:#000000;" y="16"><tspan x="5" y="16" class="highcharts-text-outline" fill="#FFFFFF" stroke="#FFFFFF" stroke-width="2px" stroke-linejoin="round">29.36%</tspan><tspan x="5" y="16">29.36%</tspan></text></g><g class="highcharts-label highcharts-data-label highcharts-data-label-color-0 " data-z-index="1" transform="translate(477,102)"><text x="5" data-z-index="1" style="font-size:11px;font-weight:bold;color:#000000;fill:#000000;" y="16"><tspan x="5" y="16" class="highcharts-text-outline" fill="#FFFFFF" stroke="#FFFFFF" stroke-width="2px" stroke-linejoin="round">33.80%</tspan><tspan x="5" y="16">33.80%</tspan></text></g></g><g data-z-index="6" class="highcharts-data-labels highcharts-series-1 highcharts-area-series highcharts-color-1 " visibility="visible" transform="translate(61,46) scale(1 1)"><g class="highcharts-label highcharts-data-label highcharts-data-label-color-1 " data-z-index="1" transform="translate(10,294)"><text x="5" data-z-index="1" style="font-size:11px;font-weight:bold;color:#000000;fill:#000000;" y="16"><tspan x="5" y="16" class="highcharts-text-outline" fill="#FFFFFF" stroke="#FFFFFF" stroke-width="2px" stroke-linejoin="round">8.62%</tspan><tspan x="5" y="16">8.62%</tspan></text></g><g class="highcharts-label highcharts-data-label highcharts-data-label-color-1 " data-z-index="1" transform="translate(65,266)"><text x="5" data-z-index="1" style="font-size:11px;font-weight:bold;color:#000000;fill:#000000;" y="16"><tspan x="5" y="16" class="highcharts-text-outline" fill="#FFFFFF" stroke="#FFFFFF" stroke-width="2px" stroke-linejoin="round">12.33%</tspan><tspan x="5" y="16">12.33%</tspan></text></g><g class="highcharts-label highcharts-data-label highcharts-data-label-color-1 " data-z-index="1" transform="translate(124,231)"><text x="5" data-z-index="1" style="font-size:11px;font-weight:bold;color:#000000;fill:#000000;" y="16"><tspan x="5" y="16" class="highcharts-text-outline" fill="#FFFFFF" stroke="#FFFFFF" stroke-width="2px" stroke-linejoin="round">16.91%</tspan><tspan x="5" y="16">16.91%</tspan></text></g><g class="highcharts-label highcharts-data-label highcharts-data-label-color-1 " data-z-index="1" transform="translate(183,196)"><text x="5" data-z-index="1" style="font-size:11px;font-weight:bold;color:#000000;fill:#000000;" y="16"><tspan x="5" y="16" class="highcharts-text-outline" fill="#FFFFFF" stroke="#FFFFFF" stroke-width="2px" stroke-linejoin="round">21.42%</tspan><tspan x="5" y="16">21.42%</tspan></text></g><g class="highcharts-label highcharts-data-label highcharts-data-label-color-1 " data-z-index="1" transform="translate(242,163)"><text x="5" data-z-index="1" style="font-size:11px;font-weight:bold;color:#000000;fill:#000000;" y="16"><tspan x="5" y="16" class="highcharts-text-outline" fill="#FFFFFF" stroke="#FFFFFF" stroke-width="2px" stroke-linejoin="round">25.73%</tspan><tspan x="5" y="16">25.73%</tspan></text></g><g class="highcharts-label highcharts-data-label highcharts-data-label-color-1 " data-z-index="1" transform="translate(300,136)"><text x="5" data-z-index="1" style="font-size:11px;font-weight:bold;color:#000000;fill:#000000;" y="16"><tspan x="5" y="16" class="highcharts-text-outline" fill="#FFFFFF" stroke="#FFFFFF" stroke-width="2px" stroke-linejoin="round">29.33%</tspan><tspan x="5" y="16">29.33%</tspan></text></g><g class="highcharts-label highcharts-data-label highcharts-data-label-color-1 " data-z-index="1" transform="translate(359,108)"><text x="5" data-z-index="1" style="font-size:11px;font-weight:bold;color:#000000;fill:#000000;" y="16"><tspan x="5" y="16" class="highcharts-text-outline" fill="#FFFFFF" stroke="#FFFFFF" stroke-width="2px" stroke-linejoin="round">32.99%</tspan><tspan x="5" y="16">32.99%</tspan></text></g><g class="highcharts-label highcharts-data-label highcharts-data-label-color-1 " data-z-index="1" transform="translate(418,81)"><text x="5" data-z-index="1" style="font-size:11px;font-weight:bold;color:#000000;fill:#000000;" y="16"><tspan x="5" y="16" class="highcharts-text-outline" fill="#FFFFFF" stroke="#FFFFFF" stroke-width="2px" stroke-linejoin="round">36.47%</tspan><tspan x="5" y="16">36.47%</tspan></text></g><g class="highcharts-label highcharts-data-label highcharts-data-label-color-1 " data-z-index="1" transform="translate(477,56)"><text x="5" data-z-index="1" style="font-size:11px;font-weight:bold;color:#000000;fill:#000000;" y="16"><tspan x="5" y="16" class="highcharts-text-outline" fill="#FFFFFF" stroke="#FFFFFF" stroke-width="2px" stroke-linejoin="round">39.82%</tspan><tspan x="5" y="16">39.82%</tspan></text></g></g><g data-z-index="6" class="highcharts-data-labels highcharts-series-2 highcharts-area-series highcharts-color-2 " visibility="visible" transform="translate(61,46) scale(1 1)"><g class="highcharts-label highcharts-data-label highcharts-data-label-color-2 " data-z-index="1" transform="translate(10,359)"><text x="5" data-z-index="1" style="font-size:11px;font-weight:bold;color:#000000;fill:#000000;" y="16"><tspan x="5" y="16" class="highcharts-text-outline" fill="#FFFFFF" stroke="#FFFFFF" stroke-width="2px" stroke-linejoin="round">0.08%</tspan><tspan x="5" y="16">0.08%</tspan></text></g><g class="highcharts-label highcharts-data-label highcharts-data-label-color-2 " data-z-index="1" transform="translate(68,358)"><text x="5" data-z-index="1" style="font-size:11px;font-weight:bold;color:#000000;fill:#000000;" y="16"><tspan x="5" y="16" class="highcharts-text-outline" fill="#FFFFFF" stroke="#FFFFFF" stroke-width="2px" stroke-linejoin="round">0.21%</tspan><tspan x="5" y="16">0.21%</tspan></text></g><g class="highcharts-label highcharts-data-label highcharts-data-label-color-2 " data-z-index="1" transform="translate(127,357)"><text x="5" data-z-index="1" style="font-size:11px;font-weight:bold;color:#000000;fill:#000000;" y="16"><tspan x="5" y="16" class="highcharts-text-outline" fill="#FFFFFF" stroke="#FFFFFF" stroke-width="2px" stroke-linejoin="round">0.36%</tspan><tspan x="5" y="16">0.36%</tspan></text></g><g class="highcharts-label highcharts-data-label highcharts-data-label-color-2 " data-z-index="1" transform="translate(186,356)"><text x="5" data-z-index="1" style="font-size:11px;font-weight:bold;color:#000000;fill:#000000;" y="16"><tspan x="5" y="16" class="highcharts-text-outline" fill="#FFFFFF" stroke="#FFFFFF" stroke-width="2px" stroke-linejoin="round">0.54%</tspan><tspan x="5" y="16">0.54%</tspan></text></g><g class="highcharts-label highcharts-data-label highcharts-data-label-color-2 " data-z-index="1" transform="translate(245,355)"><text x="5" data-z-index="1" style="font-size:11px;font-weight:bold;color:#000000;fill:#000000;" y="16"><tspan x="5" y="16" class="highcharts-text-outline" fill="#FFFFFF" stroke="#FFFFFF" stroke-width="2px" stroke-linejoin="round">0.71%</tspan><tspan x="5" y="16">0.71%</tspan></text></g><g class="highcharts-label highcharts-data-label highcharts-data-label-color-2 " data-z-index="1" transform="translate(304,353)"><text x="5" data-z-index="1" style="font-size:11px;font-weight:bold;color:#000000;fill:#000000;" y="16"><tspan x="5" y="16" class="highcharts-text-outline" fill="#FFFFFF" stroke="#FFFFFF" stroke-width="2px" stroke-linejoin="round">0.95%</tspan><tspan x="5" y="16">0.95%</tspan></text></g><g class="highcharts-label highcharts-data-label highcharts-data-label-color-2 " data-z-index="1" transform="translate(362,350)"><text x="5" data-z-index="1" style="font-size:11px;font-weight:bold;color:#000000;fill:#000000;" y="16"><tspan x="5" y="16" class="highcharts-text-outline" fill="#FFFFFF" stroke="#FFFFFF" stroke-width="2px" stroke-linejoin="round">1.30%</tspan><tspan x="5" y="16">1.30%</tspan></text></g><g class="highcharts-label highcharts-data-label highcharts-data-label-color-2 " data-z-index="1" transform="translate(421,345)"><text x="5" data-z-index="1" style="font-size:11px;font-weight:bold;color:#000000;fill:#000000;" y="16"><tspan x="5" y="16" class="highcharts-text-outline" fill="#FFFFFF" stroke="#FFFFFF" stroke-width="2px" stroke-linejoin="round">1.90%</tspan><tspan x="5" y="16">1.90%</tspan></text></g><g class="highcharts-label highcharts-data-label highcharts-data-label-color-2 " data-z-index="1" transform="translate(480,339)"><text x="5" data-z-index="1" style="font-size:11px;font-weight:bold;color:#000000;fill:#000000;" y="16"><tspan x="5" y="16" class="highcharts-text-outline" fill="#FFFFFF" stroke="#FFFFFF" stroke-width="2px" stroke-linejoin="round">2.69%</tspan><tspan x="5" y="16">2.69%</tspan></text></g></g><g data-z-index="6" class="highcharts-data-labels highcharts-series-3 highcharts-area-series highcharts-color-3 " visibility="visible" transform="translate(61,46) scale(1 1)"><g class="highcharts-label highcharts-data-label highcharts-data-label-color-3 " data-z-index="1" transform="translate(10,291)" opacity="0" visibility="hidden"><text x="5" data-z-index="1" style="font-size:11px;font-weight:bold;color:#000000;fill:#000000;" y="16"><tspan x="5" y="16" class="highcharts-text-outline" fill="#FFFFFF" stroke="#FFFFFF" stroke-width="2px" stroke-linejoin="round">9.06%</tspan><tspan x="5" y="16">9.06%</tspan></text></g><g class="highcharts-label highcharts-data-label highcharts-data-label-color-3 " data-z-index="1" transform="translate(65,261)" opacity="0" visibility="hidden"><text x="5" data-z-index="1" style="font-size:11px;font-weight:bold;color:#000000;fill:#000000;" y="16"><tspan x="5" y="16" class="highcharts-text-outline" fill="#FFFFFF" stroke="#FFFFFF" stroke-width="2px" stroke-linejoin="round">12.90%</tspan><tspan x="5" y="16">12.90%</tspan></text></g><g class="highcharts-label highcharts-data-label highcharts-data-label-color-3 " data-z-index="1" transform="translate(124,226)" opacity="0" visibility="hidden"><text x="5" data-z-index="1" style="font-size:11px;font-weight:bold;color:#000000;fill:#000000;" y="16"><tspan x="5" y="16" class="highcharts-text-outline" fill="#FFFFFF" stroke="#FFFFFF" stroke-width="2px" stroke-linejoin="round">17.59%</tspan><tspan x="5" y="16">17.59%</tspan></text></g><g class="highcharts-label highcharts-data-label highcharts-data-label-color-3 " data-z-index="1" transform="translate(183,193)" opacity="0" visibility="hidden"><text x="5" data-z-index="1" style="font-size:11px;font-weight:bold;color:#000000;fill:#000000;" y="16"><tspan x="5" y="16" class="highcharts-text-outline" fill="#FFFFFF" stroke="#FFFFFF" stroke-width="2px" stroke-linejoin="round">21.84%</tspan><tspan x="5" y="16">21.84%</tspan></text></g><g class="highcharts-label highcharts-data-label highcharts-data-label-color-3 " data-z-index="1" transform="translate(242,160)" opacity="0" visibility="hidden"><text x="5" data-z-index="1" style="font-size:11px;font-weight:bold;color:#000000;fill:#000000;" y="16"><tspan x="5" y="16" class="highcharts-text-outline" fill="#FFFFFF" stroke="#FFFFFF" stroke-width="2px" stroke-linejoin="round">26.15%</tspan><tspan x="5" y="16">26.15%</tspan></text></g><g class="highcharts-label highcharts-data-label highcharts-data-label-color-3 " data-z-index="1" transform="translate(300,132)" opacity="0" visibility="hidden"><text x="5" data-z-index="1" style="font-size:11px;font-weight:bold;color:#000000;fill:#000000;" y="16"><tspan x="5" y="16" class="highcharts-text-outline" fill="#FFFFFF" stroke="#FFFFFF" stroke-width="2px" stroke-linejoin="round">29.82%</tspan><tspan x="5" y="16">29.82%</tspan></text></g><g class="highcharts-label highcharts-data-label highcharts-data-label-color-3 " data-z-index="1" transform="translate(359,104)" opacity="0" visibility="hidden"><text x="5" data-z-index="1" style="font-size:11px;font-weight:bold;color:#000000;fill:#000000;" y="16"><tspan x="5" y="16" class="highcharts-text-outline" fill="#FFFFFF" stroke="#FFFFFF" stroke-width="2px" stroke-linejoin="round">33.46%</tspan><tspan x="5" y="16">33.46%</tspan></text></g><g class="highcharts-label highcharts-data-label highcharts-data-label-color-3 " data-z-index="1" transform="translate(418,78)" opacity="0" visibility="hidden"><text x="5" data-z-index="1" style="font-size:11px;font-weight:bold;color:#000000;fill:#000000;" y="16"><tspan x="5" y="16" class="highcharts-text-outline" fill="#FFFFFF" stroke="#FFFFFF" stroke-width="2px" stroke-linejoin="round">36.97%</tspan><tspan x="5" y="16">36.97%</tspan></text></g><g class="highcharts-label highcharts-data-label highcharts-data-label-color-3 " data-z-index="1" transform="translate(477,52)" opacity="0" visibility="hidden"><text x="5" data-z-index="1" style="font-size:11px;font-weight:bold;color:#000000;fill:#000000;" y="16"><tspan x="5" y="16" class="highcharts-text-outline" fill="#FFFFFF" stroke="#FFFFFF" stroke-width="2px" stroke-linejoin="round">40.36%</tspan><tspan x="5" y="16">40.36%</tspan></text></g></g><g data-z-index="6" class="highcharts-data-labels highcharts-series-4 highcharts-area-series highcharts-color-4 " visibility="visible" transform="translate(61,46) scale(1 1)"><g class="highcharts-label highcharts-data-label highcharts-data-label-color-4 " data-z-index="1" transform="translate(10,360)" opacity="0" visibility="hidden"><text x="5" data-z-index="1" style="font-size:11px;font-weight:bold;color:#000000;fill:#000000;" y="16"><tspan x="5" y="16" class="highcharts-text-outline" fill="#FFFFFF" stroke="#FFFFFF" stroke-width="2px" stroke-linejoin="round">0.06%</tspan><tspan x="5" y="16">0.06%</tspan></text></g><g class="highcharts-label highcharts-data-label highcharts-data-label-color-4 " data-z-index="1" transform="translate(68,355)" opacity="0" visibility="hidden"><text x="5" data-z-index="1" style="font-size:11px;font-weight:bold;color:#000000;fill:#000000;" y="16"><tspan x="5" y="16" class="highcharts-text-outline" fill="#FFFFFF" stroke="#FFFFFF" stroke-width="2px" stroke-linejoin="round">0.68%</tspan><tspan x="5" y="16">0.68%</tspan></text></g><g class="highcharts-label highcharts-data-label highcharts-data-label-color-4 " data-z-index="1" transform="translate(127,349)" opacity="0" visibility="hidden"><text x="5" data-z-index="1" style="font-size:11px;font-weight:bold;color:#000000;fill:#000000;" y="16"><tspan x="5" y="16" class="highcharts-text-outline" fill="#FFFFFF" stroke="#FFFFFF" stroke-width="2px" stroke-linejoin="round">1.45%</tspan><tspan x="5" y="16">1.45%</tspan></text></g><g class="highcharts-label highcharts-data-label highcharts-data-label-color-4 " data-z-index="1" transform="translate(186,344)" opacity="0" visibility="hidden"><text x="5" data-z-index="1" style="font-size:11px;font-weight:bold;color:#000000;fill:#000000;" y="16"><tspan x="5" y="16" class="highcharts-text-outline" fill="#FFFFFF" stroke="#FFFFFF" stroke-width="2px" stroke-linejoin="round">2.07%</tspan><tspan x="5" y="16">2.07%</tspan></text></g><g class="highcharts-label highcharts-data-label highcharts-data-label-color-4 " data-z-index="1" transform="translate(245,338)"><text x="5" data-z-index="1" style="font-size:11px;font-weight:bold;color:#000000;fill:#000000;" y="16"><tspan x="5" y="16" class="highcharts-text-outline" fill="#FFFFFF" stroke="#FFFFFF" stroke-width="2px" stroke-linejoin="round">2.92%</tspan><tspan x="5" y="16">2.92%</tspan></text></g><g class="highcharts-label highcharts-data-label highcharts-data-label-color-4 " data-z-index="1" transform="translate(304,332)"><text x="5" data-z-index="1" style="font-size:11px;font-weight:bold;color:#000000;fill:#000000;" y="16"><tspan x="5" y="16" class="highcharts-text-outline" fill="#FFFFFF" stroke="#FFFFFF" stroke-width="2px" stroke-linejoin="round">3.67%</tspan><tspan x="5" y="16">3.67%</tspan></text></g><g class="highcharts-label highcharts-data-label highcharts-data-label-color-4 " data-z-index="1" transform="translate(362,325)"><text x="5" data-z-index="1" style="font-size:11px;font-weight:bold;color:#000000;fill:#000000;" y="16"><tspan x="5" y="16" class="highcharts-text-outline" fill="#FFFFFF" stroke="#FFFFFF" stroke-width="2px" stroke-linejoin="round">4.58%</tspan><tspan x="5" y="16">4.58%</tspan></text></g><g class="highcharts-label highcharts-data-label highcharts-data-label-color-4 " data-z-index="1" transform="translate(421,321)"><text x="5" data-z-index="1" style="font-size:11px;font-weight:bold;color:#000000;fill:#000000;" y="16"><tspan x="5" y="16" class="highcharts-text-outline" fill="#FFFFFF" stroke="#FFFFFF" stroke-width="2px" stroke-linejoin="round">5.05%</tspan><tspan x="5" y="16">5.05%</tspan></text></g><g class="highcharts-label highcharts-data-label highcharts-data-label-color-4 " data-z-index="1" transform="translate(480,314)"><text x="5" data-z-index="1" style="font-size:11px;font-weight:bold;color:#000000;fill:#000000;" y="16"><tspan x="5" y="16" class="highcharts-text-outline" fill="#FFFFFF" stroke="#FFFFFF" stroke-width="2px" stroke-linejoin="round">5.97%</tspan><tspan x="5" y="16">5.97%</tspan></text></g></g><g class="highcharts-legend" data-z-index="7" transform="translate(72,460)"><rect fill="none" class="highcharts-legend-box" rx="0" ry="0" x="0" y="0" width="456" height="25" visibility="visible"></rect><g data-z-index="1"><g><g class="highcharts-legend-item highcharts-area-series highcharts-color-0 highcharts-series-0" data-z-index="1" transform="translate(8,3)"><text x="21" style="color:#333333;cursor:pointer;font-size:12px;font-weight:bold;fill:#333333;" text-anchor="start" data-z-index="2" y="15"><tspan>United States</tspan></text><rect x="2" y="4" width="12" height="12" fill="#1C2333" rx="6" ry="6" class="highcharts-point" data-z-index="3"></rect></g><g class="highcharts-legend-item highcharts-area-series highcharts-color-1 highcharts-series-1" data-z-index="1" transform="translate(120.375,3)"><text x="21" y="15" style="color:#333333;cursor:pointer;font-size:12px;font-weight:bold;fill:#333333;" text-anchor="start" data-z-index="2"><tspan>United Kingdom</tspan></text><rect x="2" y="4" width="12" height="12" fill="#00C9FF" rx="6" ry="6" class="highcharts-point" data-z-index="3"></rect></g><g class="highcharts-legend-item highcharts-area-series highcharts-color-2 highcharts-series-2" data-z-index="1" transform="translate(246.625,3)"><text x="21" y="15" style="color:#333333;cursor:pointer;font-size:12px;font-weight:bold;fill:#333333;" text-anchor="start" data-z-index="2"><tspan>India</tspan></text><rect x="2" y="4" width="12" height="12" fill="#01DD9F" rx="6" ry="6" class="highcharts-point" data-z-index="3"></rect></g><g class="highcharts-legend-item highcharts-area-series highcharts-color-3 highcharts-series-3" data-z-index="1" transform="translate(313.71875,3)"><text x="21" y="15" style="color:#333333;cursor:pointer;font-size:12px;font-weight:bold;fill:#333333;" text-anchor="start" data-z-index="2"><tspan>England</tspan></text><rect x="2" y="4" width="12" height="12" fill="#FD0F6B" rx="6" ry="6" class="highcharts-point" data-z-index="3"></rect></g><g class="highcharts-legend-item highcharts-area-series highcharts-color-4 highcharts-series-4" data-z-index="1" transform="translate(397.734375,3)"><text x="21" y="15" style="color:#333333;cursor:pointer;font-size:12px;font-weight:bold;fill:#333333;" text-anchor="start" data-z-index="2"><tspan>Brazil</tspan></text><rect x="2" y="4" width="12" height="12" fill="#FFC603" rx="6" ry="6" class="highcharts-point" data-z-index="3"></rect></g></g></g></g><g class="highcharts-axis-labels highcharts-xaxis-labels " data-z-index="7"><text x="90.38888888889112" style="color:#666666;cursor:default;font-size:11px;fill:#666666;" text-anchor="middle" transform="translate(0,0)" y="447" opacity="1"><tspan>3º Week</tspan></text><text x="149.16666666667112" style="color:#666666;cursor:default;font-size:11px;fill:#666666;" text-anchor="middle" transform="translate(0,0)" y="447" opacity="1"><tspan>4º Week</tspan></text><text x="207.9444444444411" style="color:#666666;cursor:default;font-size:11px;fill:#666666;" text-anchor="middle" transform="translate(0,0)" y="447" opacity="1"><tspan>5º Week</tspan></text><text x="266.7222222222211" style="color:#666666;cursor:default;font-size:11px;fill:#666666;" text-anchor="middle" transform="translate(0,0)" y="447" opacity="1"><tspan>6º Week</tspan></text><text x="325.5000000000011" style="color:#666666;cursor:default;font-size:11px;fill:#666666;" text-anchor="middle" transform="translate(0,0)" y="447" opacity="1"><tspan>7º Week</tspan></text><text x="384.27777777778107" style="color:#666666;cursor:default;font-size:11px;fill:#666666;" text-anchor="middle" transform="translate(0,0)" y="447" opacity="1"><tspan>8º Week</tspan></text><text x="443.0555555555511" style="color:#666666;cursor:default;font-size:11px;fill:#666666;" text-anchor="middle" transform="translate(0,0)" y="447" opacity="1"><tspan>9º Week</tspan></text><text x="501.8333333333311" style="color:#666666;cursor:default;font-size:11px;fill:#666666;" text-anchor="middle" transform="translate(0,0)" y="447" opacity="1"><tspan>10º Week</tspan></text><text x="560.6111111111111" style="color:#666666;cursor:default;font-size:11px;fill:#666666;" text-anchor="middle" transform="translate(0,0)" y="447" opacity="1"><tspan>11º Week</tspan></text></g><g class="highcharts-axis-labels highcharts-yaxis-labels " data-z-index="7"><text x="46" style="color:#666666;cursor:default;font-size:11px;fill:#666666;" text-anchor="end" transform="translate(0,0)" y="433" opacity="1">0</text><text x="46" style="color:#666666;cursor:default;font-size:11px;fill:#666666;" text-anchor="end" transform="translate(0,0)" y="356" opacity="1">10</text><text x="46" style="color:#666666;cursor:default;font-size:11px;fill:#666666;" text-anchor="end" transform="translate(0,0)" y="280" opacity="1">20</text><text x="46" style="color:#666666;cursor:default;font-size:11px;fill:#666666;" text-anchor="end" transform="translate(0,0)" y="204" opacity="1">30</text><text x="46" style="color:#666666;cursor:default;font-size:11px;fill:#666666;" text-anchor="end" transform="translate(0,0)" y="127" opacity="1">40</text><text x="46" style="color:#666666;cursor:default;font-size:11px;fill:#666666;" text-anchor="end" transform="translate(0,0)" y="51" opacity="1">50</text></g><text x="590" class="highcharts-credits" text-anchor="end" data-z-index="8" style="cursor:pointer;color:#999999;font-size:9px;fill:#999999;" y="495">Highcharts.com</text><g class="highcharts-control-points" data-z-index="99" clip-path="url(#highcharts-zz29m81-1268)"></g></svg>